# xmcd
#
# Track frame offsets:
#	150
#	9129
#	24150
#	40709
#	56446
#	72726
#	92000
#	107690
#	124884
#	141814
#	156085
#	174731
#
# Disc length: 2524 seconds
#
# Revision: 1
# Processed by: cddbd v1.5.2PL0 Copyright (c) Steve Scherf et al.
# Submitted via: audiograbber 1.83.01
#
DISCID=9509da0c
DTITLE=Chorale - Toisenlainen
DYEAR=2009
DGENRE=Dance
TTITLE0=Intro
TTITLE1=Jos Tahdot Pit‰‰ Kii
TTITLE2=En Tuntenutkaan
TTITLE3=Et Tuu Muuttuun
TTITLE4=Mix
TTITLE5=ƒkkisyv‰‰
TTITLE6=Fantasia
TTITLE7=Jos Voisin Saada Uuden Maailman
TTITLE8=Tahtoisin Lent‰‰
TTITLE9=Anna Anteeksi
TTITLE10=S‰ Et Yksin J‰‰
TTITLE11=Chorale Meets DJ Candyhand - Welcome To The Partyland
EXTD=TR.
EXTT0=
EXTT1=
EXTT2=
EXTT3=
EXTT4=
EXTT5=
EXTT6=
EXTT7=
EXTT8=
EXTT9=
EXTT10=
EXTT11=
PLAYORDER=
